<svg xmlns="http://www.w3.org/2000/svg" xmlns:xlink="http://www.w3.org/1999/xlink" width="100" height="100" viewBox="0 0 100 100"><g><g transform="translate(50 50) scale(0.69 0.69) rotate(0) translate(-50 -50)" style="fill:#2173a3"><svg fill="#2173a3" xmlns="http://www.w3.org/2000/svg" xmlns:xlink="http://www.w3.org/1999/xlink" version="1.1" x="0px" y="0px" viewBox="0 0 100 100" enable-background="new 0 0 100 100" xml:space="preserve"><path d="M71.084,75.479c0,1.654-1.346,3-3,3H24.521c-1.654,0-3-1.346-3-3V31.916c0-1.654,1.346-3,3-3h29.979v-4H24.521  c-3.859,0-7,3.141-7,7v43.563c0,3.859,3.141,7,7,7h43.563c3.859,0,7-3.141,7-7V46.697h-4V75.479z M58.312,17.521v4H75.65  L35.889,61.283l2.828,2.828L78.479,24.35v17.338h4V17.521H58.312z"></path></svg></g></g></svg>