<svg xmlns="http://www.w3.org/2000/svg" xmlns:xlink="http://www.w3.org/1999/xlink" width="100" height="100" viewBox="0 0 100 100"><g><g transform="translate(50 50) scale(0.69 0.69) rotate(0) translate(-50 -50)" style="fill:#333333"><svg fill="#333333" xmlns="http://www.w3.org/2000/svg" xmlns:xlink="http://www.w3.org/1999/xlink" version="1.1" x="0px" y="0px" viewBox="0 0 100 100" enable-background="new 0 0 100 100" xml:space="preserve"><path d="M55,79.75c-0.268,0-0.534-0.071-0.771-0.214l-10-6c-0.452-0.271-0.729-0.759-0.729-1.286V53.49L21.485,22.621  c-0.326-0.457-0.369-1.059-0.111-1.558c0.257-0.5,0.771-0.813,1.333-0.813h54.586c0.562,0,1.076,0.313,1.333,0.813  c0.258,0.499,0.215,1.101-0.111,1.558L56.5,53.49v24.76c0,0.54-0.291,1.039-0.761,1.306C55.51,79.686,55.255,79.75,55,79.75z   M46.5,71.4l7,4.2V53.01c0-0.313,0.098-0.617,0.278-0.871L74.381,23.25H25.619l20.603,28.889c0.181,0.254,0.278,0.559,0.278,0.871  V71.4z"></path></svg></g></g></svg>