<svg xmlns="http://www.w3.org/2000/svg" xmlns:xlink="http://www.w3.org/1999/xlink" width="100" height="100" viewBox="0 0 100 100"><g><g transform="translate(50 50) scale(0.69 0.69) rotate(0) translate(-50 -50)" style="fill:#333333"><svg fill="#333333" xmlns="http://www.w3.org/2000/svg" xmlns:xlink="http://www.w3.org/1999/xlink" version="1.1" x="0px" y="0px" viewBox="0 0 70 70" style="enable-background:new 0 0 70 70;" xml:space="preserve"><style type="text/css">
	.st0{fill:none;stroke:#333333;stroke-width:2;stroke-linecap:round;stroke-linejoin:round;stroke-miterlimit:10;}
	.st1{fill:none;}
</style><g><g><g><path d="M53.7313347,60H16.2684441c-0.5527334,0-0.999999-0.4477539-0.999999-1V11c0-0.5522461,0.4472656-1,0.999999-1     h26.5927734c0.5527344,0,1,0.4477539,1,1v9.8798828h9.8701172c0.5527344,0,1,0.4477539,1,1V59     C54.7313347,59.5522461,54.2840691,60,53.7313347,60z M17.2684441,58h35.4628906V22.8798828h-9.8701172     c-0.5527344,0-1-0.4477539-1-1V12H17.2684441V58z"></path></g></g><g><g><path d="M53.7313347,22.8798828H42.8612175c-0.5527344,0-1-0.4477539-1-1V11c0-0.4047852,0.2441406-0.769043,0.6171875-0.9238281     c0.375-0.1533203,0.8037109-0.0688477,1.0898438,0.2167969l10.8701172,10.8798828     c0.2861328,0.2861328,0.3720703,0.7163086,0.2167969,1.0898438S54.1356316,22.8798828,53.7313347,22.8798828z      M43.8612175,20.8798828h7.4570313l-7.4570313-7.4643555V20.8798828z"></path></g></g><g><g><path d="M45.6014519,28.5834961H21.6844597c-0.5527344,0-1-0.4477539-1-1s0.4472656-1,1-1h23.9169922     c0.5527344,0,1,0.4477539,1,1S46.1541862,28.5834961,45.6014519,28.5834961z"></path></g></g><g><g><path d="M45.6014519,35.0117188H21.6844597c-0.5527344,0-1-0.4477539-1-1s0.4472656-1,1-1h23.9169922     c0.5527344,0,1,0.4477539,1,1S46.1541862,35.0117188,45.6014519,35.0117188z"></path></g></g><g><g><path d="M34.9998894,41.4399414H21.6844597c-0.5527344,0-1-0.4477539-1-1s0.4472656-1,1-1h13.3154297     c0.5527344,0,1,0.4477539,1,1S35.5526237,41.4399414,34.9998894,41.4399414z"></path></g></g><g><g><path d="M45.6014519,47.8681641H21.6844597c-0.5527344,0-1-0.4477539-1-1s0.4472656-1,1-1h23.9169922     c0.5527344,0,1,0.4477539,1,1S46.1541862,47.8681641,45.6014519,47.8681641z"></path></g></g><g><g><path d="M28.3426628,54.2963867h-6.6582031c-0.5527344,0-1-0.4477539-1-1s0.4472656-1,1-1h6.6582031c0.5527344,0,1,0.4477539,1,1     S28.8953972,54.2963867,28.3426628,54.2963867z"></path></g></g></g></svg></g></g></svg>