<svg xmlns="http://www.w3.org/2000/svg" xmlns:xlink="http://www.w3.org/1999/xlink" width="100" height="100" viewBox="0 0 100 100"><g><g transform="translate(50 50) scale(0.69 0.69) rotate(0) translate(-50 -50)" style="fill:#d2232a"><svg fill="#d2232a" xmlns="http://www.w3.org/2000/svg" xmlns:xlink="http://www.w3.org/1999/xlink" version="1.1" x="0px" y="0px" viewBox="0 0 96 96" style="enable-background:new 0 0 96 96;" xml:space="preserve"><g><g><path d="M48,21c-14.9,0-27,12.1-27,27s12.1,27,27,27c6.7,0,12.9-2.5,17.6-6.6L78,80.8l2.8-2.8L68.4,65.6C72.5,60.9,75,54.7,75,48    C75,33.1,62.9,21,48,21z M48,71c-12.7,0-23-10.3-23-23s10.3-23,23-23s23,10.3,23,23S60.7,71,48,71z"></path><polygon points="53.7,39.5 48,45.2 42.3,39.5 39.5,42.3 45.2,48 39.5,53.7 42.3,56.5 48,50.8 53.7,56.5 56.5,53.7 50.8,48     56.5,42.3   "></polygon></g></g></svg></g></g></svg>