<svg xmlns="http://www.w3.org/2000/svg" xmlns:xlink="http://www.w3.org/1999/xlink" width="100" height="100" viewBox="0 0 100 100"><g><g transform="translate(50 50) scale(0.69 0.69) rotate(0) translate(-50 -50)" style="fill:#333333"><svg fill="#333333" xmlns="http://www.w3.org/2000/svg" xmlns:xlink="http://www.w3.org/1999/xlink" version="1.1" x="0px" y="0px" viewBox="0 0 100 100" style="enable-background:new 0 0 100 100;" xml:space="preserve"><g><path d="M50,16.2c-18.7,0-33.8,15.2-33.8,33.8c0,18.7,15.2,33.8,33.8,33.8c18.7,0,33.8-15.2,33.8-33.8C83.8,31.3,68.7,16.2,50,16.2   z M50,79c-16,0-29-13-29-29s13-29,29-29s29,13,29,29S66,79,50,79z"></path><path d="M50,65.3c-0.8,0-1.5-0.3-2-0.8c-0.4-0.5-0.7-1.1-0.7-1.9c0-0.7,0.3-1.4,0.8-1.9c1-1,2.8-1,3.8,0c0.5,0.5,0.8,1.2,0.8,1.9   c0,0.8-0.3,1.4-0.8,1.9C51.4,65.1,50.7,65.3,50,65.3z"></path><path d="M50,54.3c-1.5,0-2.7-1.2-2.7-2.7V37.4c0-1.5,1.2-2.7,2.7-2.7c1.5,0,2.7,1.2,2.7,2.7v14.2C52.7,53.1,51.5,54.3,50,54.3z"></path></g></svg></g></g></svg>