<svg xmlns="http://www.w3.org/2000/svg" xmlns:xlink="http://www.w3.org/1999/xlink" width="100" height="100" viewBox="0 0 100 100"><g><g transform="translate(50 50) scale(0.69 0.69) rotate(0) translate(-50 -50)" style="fill:#d2232a"><svg fill="#d2232a" xmlns:dc="http://purl.org/dc/elements/1.1/" xmlns:cc="http://creativecommons.org/ns#" xmlns:rdf="http://www.w3.org/1999/02/22-rdf-syntax-ns#" xmlns:svg="http://www.w3.org/2000/svg" xmlns="http://www.w3.org/2000/svg" xmlns:sodipodi="http://sodipodi.sourceforge.net/DTD/sodipodi-0.dtd" xmlns:inkscape="http://www.inkscape.org/namespaces/inkscape" viewBox="0 0 100 100" version="1.1" x="0px" y="0px"><g transform="translate(0,-952.36216)"><path d="m 67.170701,957.36216 c -14.64529,0.0597 -21.933272,11.5472 -34.266605,11.7505 -7.307923,7e-4 -14.207324,-3.03249 -18.839504,-8.22919 l 0,-2.01593 -0.524651,0 0,-1.04125 -1.586042,0 0,1.04125 -0.528681,0 0,88.49466 2.64547,0 0,-30.7432 -0.01033,0 0,-10.0958 c 4.961559,4.6008 11.724167,7.2412 18.839504,7.2403 14.109997,-0.2338 20.364484,-11.5487 34.266605,-11.7504 7.897561,8e-4 14.806364,3.296 19.428729,8.9113 0.215626,0.2696 0.562156,0.4239 0.924184,0.4116 0.658345,-0.023 1.056741,-0.5453 1.055398,-1.0817 -0.03823,-14.79514 0,-29.82714 0,-42.49364 1.03e-4,-0.2338 -0.05269,-0.4771 -0.232053,-0.6882 -5.036673,-6.11854 -11.899292,-9.61936 -21.176258,-9.7103 z" style="color:#000000;font-style:normal;font-variant:normal;font-weight:normal;font-stretch:normal;font-size:medium;line-height:normal;font-family:sans-serif;text-indent:0;text-align:start;text-decoration:none;text-decoration-line:none;text-decoration-style:solid;text-decoration-color:#000000;letter-spacing:normal;word-spacing:normal;text-transform:none;direction:ltr;block-progression:tb;writing-mode:lr-tb;baseline-shift:baseline;text-anchor:start;white-space:normal;clip-rule:nonzero;display:inline;overflow:visible;visibility:visible;opacity:1;isolation:auto;mix-blend-mode:normal;color-interpolation:sRGB;color-interpolation-filters:linearRGB;solid-color:#000000;solid-opacity:1;fill:#d2232a;fill-opacity:1;fill-rule:nonzero;stroke:none;stroke-width:8;stroke-linecap:round;stroke-linejoin:round;stroke-miterlimit:4;stroke-dasharray:none;stroke-dashoffset:0;stroke-opacity:1;color-rendering:auto;image-rendering:auto;shape-rendering:auto;text-rendering:auto;enable-background:accumulate"></path></g></svg></g></g></svg>